%TF.GenerationSoftware,KiCad,Pcbnew,9.0.2*%
%TF.CreationDate,2025-06-20T18:51:26-07:00*%
%TF.ProjectId,slime_tracker,736c696d-655f-4747-9261-636b65722e6b,rev?*%
%TF.SameCoordinates,Original*%
%TF.FileFunction,Drillmap*%
%TF.FilePolarity,Positive*%
%FSLAX45Y45*%
G04 Gerber Fmt 4.5, Leading zero omitted, Abs format (unit mm)*
G04 Created by KiCad (PCBNEW 9.0.2) date 2025-06-20 18:51:26*
%MOMM*%
%LPD*%
G01*
G04 APERTURE LIST*
%ADD10C,0.050000*%
%ADD11C,0.200000*%
%ADD12C,0.220000*%
G04 APERTURE END LIST*
D10*
X12500000Y-11250000D02*
X15500000Y-11250000D01*
X15750000Y-11000000D02*
G75*
G02*
X15500000Y-11250000I-250000J0D01*
G01*
X12500000Y-11250000D02*
G75*
G02*
X12250000Y-11000000I0J250000D01*
G01*
X15750000Y-11000000D02*
X15750000Y-7250000D01*
X15500000Y-7000000D02*
G75*
G02*
X15750000Y-7250000I0J-250000D01*
G01*
X12250000Y-7250000D02*
G75*
G02*
X12500000Y-7000000I250000J0D01*
G01*
X12250000Y-7250000D02*
X12250000Y-11000000D01*
X15500000Y-7000000D02*
X12500000Y-7000000D01*
D11*
D12*
X12440000Y-7940000D02*
X12660000Y-8160000D01*
X12660000Y-7940000D02*
X12440000Y-8160000D01*
X13940000Y-10840000D02*
X14160000Y-11060000D01*
X14160000Y-10840000D02*
X13940000Y-11060000D01*
X15040000Y-7940000D02*
X15260000Y-8160000D01*
X15260000Y-7940000D02*
X15040000Y-8160000D01*
X15340000Y-10840000D02*
X15560000Y-11060000D01*
X15560000Y-10840000D02*
X15340000Y-11060000D01*
D11*
X12508277Y-11563984D02*
X12508277Y-11363984D01*
X12508277Y-11363984D02*
X12555896Y-11363984D01*
X12555896Y-11363984D02*
X12584467Y-11373508D01*
X12584467Y-11373508D02*
X12603515Y-11392555D01*
X12603515Y-11392555D02*
X12613039Y-11411603D01*
X12613039Y-11411603D02*
X12622562Y-11449698D01*
X12622562Y-11449698D02*
X12622562Y-11478269D01*
X12622562Y-11478269D02*
X12613039Y-11516365D01*
X12613039Y-11516365D02*
X12603515Y-11535412D01*
X12603515Y-11535412D02*
X12584467Y-11554460D01*
X12584467Y-11554460D02*
X12555896Y-11563984D01*
X12555896Y-11563984D02*
X12508277Y-11563984D01*
X12708277Y-11563984D02*
X12708277Y-11430650D01*
X12708277Y-11468746D02*
X12717801Y-11449698D01*
X12717801Y-11449698D02*
X12727324Y-11440174D01*
X12727324Y-11440174D02*
X12746372Y-11430650D01*
X12746372Y-11430650D02*
X12765420Y-11430650D01*
X12832086Y-11563984D02*
X12832086Y-11430650D01*
X12832086Y-11363984D02*
X12822562Y-11373508D01*
X12822562Y-11373508D02*
X12832086Y-11383031D01*
X12832086Y-11383031D02*
X12841610Y-11373508D01*
X12841610Y-11373508D02*
X12832086Y-11363984D01*
X12832086Y-11363984D02*
X12832086Y-11383031D01*
X12955896Y-11563984D02*
X12936848Y-11554460D01*
X12936848Y-11554460D02*
X12927324Y-11535412D01*
X12927324Y-11535412D02*
X12927324Y-11363984D01*
X13060658Y-11563984D02*
X13041610Y-11554460D01*
X13041610Y-11554460D02*
X13032086Y-11535412D01*
X13032086Y-11535412D02*
X13032086Y-11363984D01*
X13289229Y-11563984D02*
X13289229Y-11363984D01*
X13289229Y-11363984D02*
X13355896Y-11506841D01*
X13355896Y-11506841D02*
X13422562Y-11363984D01*
X13422562Y-11363984D02*
X13422562Y-11563984D01*
X13603515Y-11563984D02*
X13603515Y-11459222D01*
X13603515Y-11459222D02*
X13593991Y-11440174D01*
X13593991Y-11440174D02*
X13574943Y-11430650D01*
X13574943Y-11430650D02*
X13536848Y-11430650D01*
X13536848Y-11430650D02*
X13517801Y-11440174D01*
X13603515Y-11554460D02*
X13584467Y-11563984D01*
X13584467Y-11563984D02*
X13536848Y-11563984D01*
X13536848Y-11563984D02*
X13517801Y-11554460D01*
X13517801Y-11554460D02*
X13508277Y-11535412D01*
X13508277Y-11535412D02*
X13508277Y-11516365D01*
X13508277Y-11516365D02*
X13517801Y-11497317D01*
X13517801Y-11497317D02*
X13536848Y-11487793D01*
X13536848Y-11487793D02*
X13584467Y-11487793D01*
X13584467Y-11487793D02*
X13603515Y-11478269D01*
X13698753Y-11430650D02*
X13698753Y-11630650D01*
X13698753Y-11440174D02*
X13717801Y-11430650D01*
X13717801Y-11430650D02*
X13755896Y-11430650D01*
X13755896Y-11430650D02*
X13774943Y-11440174D01*
X13774943Y-11440174D02*
X13784467Y-11449698D01*
X13784467Y-11449698D02*
X13793991Y-11468746D01*
X13793991Y-11468746D02*
X13793991Y-11525888D01*
X13793991Y-11525888D02*
X13784467Y-11544936D01*
X13784467Y-11544936D02*
X13774943Y-11554460D01*
X13774943Y-11554460D02*
X13755896Y-11563984D01*
X13755896Y-11563984D02*
X13717801Y-11563984D01*
X13717801Y-11563984D02*
X13698753Y-11554460D01*
X13879705Y-11544936D02*
X13889229Y-11554460D01*
X13889229Y-11554460D02*
X13879705Y-11563984D01*
X13879705Y-11563984D02*
X13870182Y-11554460D01*
X13870182Y-11554460D02*
X13879705Y-11544936D01*
X13879705Y-11544936D02*
X13879705Y-11563984D01*
X13879705Y-11440174D02*
X13889229Y-11449698D01*
X13889229Y-11449698D02*
X13879705Y-11459222D01*
X13879705Y-11459222D02*
X13870182Y-11449698D01*
X13870182Y-11449698D02*
X13879705Y-11440174D01*
X13879705Y-11440174D02*
X13879705Y-11459222D01*
X12047500Y-11792500D02*
X12247500Y-11992500D01*
X12247500Y-11792500D02*
X12047500Y-11992500D01*
X12498753Y-11803031D02*
X12508277Y-11793508D01*
X12508277Y-11793508D02*
X12527324Y-11783984D01*
X12527324Y-11783984D02*
X12574943Y-11783984D01*
X12574943Y-11783984D02*
X12593991Y-11793508D01*
X12593991Y-11793508D02*
X12603515Y-11803031D01*
X12603515Y-11803031D02*
X12613039Y-11822079D01*
X12613039Y-11822079D02*
X12613039Y-11841127D01*
X12613039Y-11841127D02*
X12603515Y-11869698D01*
X12603515Y-11869698D02*
X12489229Y-11983984D01*
X12489229Y-11983984D02*
X12613039Y-11983984D01*
X12698753Y-11964936D02*
X12708277Y-11974460D01*
X12708277Y-11974460D02*
X12698753Y-11983984D01*
X12698753Y-11983984D02*
X12689229Y-11974460D01*
X12689229Y-11974460D02*
X12698753Y-11964936D01*
X12698753Y-11964936D02*
X12698753Y-11983984D01*
X12784467Y-11803031D02*
X12793991Y-11793508D01*
X12793991Y-11793508D02*
X12813039Y-11783984D01*
X12813039Y-11783984D02*
X12860658Y-11783984D01*
X12860658Y-11783984D02*
X12879705Y-11793508D01*
X12879705Y-11793508D02*
X12889229Y-11803031D01*
X12889229Y-11803031D02*
X12898753Y-11822079D01*
X12898753Y-11822079D02*
X12898753Y-11841127D01*
X12898753Y-11841127D02*
X12889229Y-11869698D01*
X12889229Y-11869698D02*
X12774943Y-11983984D01*
X12774943Y-11983984D02*
X12898753Y-11983984D01*
X13022562Y-11783984D02*
X13041610Y-11783984D01*
X13041610Y-11783984D02*
X13060658Y-11793508D01*
X13060658Y-11793508D02*
X13070182Y-11803031D01*
X13070182Y-11803031D02*
X13079705Y-11822079D01*
X13079705Y-11822079D02*
X13089229Y-11860174D01*
X13089229Y-11860174D02*
X13089229Y-11907793D01*
X13089229Y-11907793D02*
X13079705Y-11945888D01*
X13079705Y-11945888D02*
X13070182Y-11964936D01*
X13070182Y-11964936D02*
X13060658Y-11974460D01*
X13060658Y-11974460D02*
X13041610Y-11983984D01*
X13041610Y-11983984D02*
X13022562Y-11983984D01*
X13022562Y-11983984D02*
X13003515Y-11974460D01*
X13003515Y-11974460D02*
X12993991Y-11964936D01*
X12993991Y-11964936D02*
X12984467Y-11945888D01*
X12984467Y-11945888D02*
X12974943Y-11907793D01*
X12974943Y-11907793D02*
X12974943Y-11860174D01*
X12974943Y-11860174D02*
X12984467Y-11822079D01*
X12984467Y-11822079D02*
X12993991Y-11803031D01*
X12993991Y-11803031D02*
X13003515Y-11793508D01*
X13003515Y-11793508D02*
X13022562Y-11783984D01*
X13213039Y-11783984D02*
X13232086Y-11783984D01*
X13232086Y-11783984D02*
X13251134Y-11793508D01*
X13251134Y-11793508D02*
X13260658Y-11803031D01*
X13260658Y-11803031D02*
X13270182Y-11822079D01*
X13270182Y-11822079D02*
X13279705Y-11860174D01*
X13279705Y-11860174D02*
X13279705Y-11907793D01*
X13279705Y-11907793D02*
X13270182Y-11945888D01*
X13270182Y-11945888D02*
X13260658Y-11964936D01*
X13260658Y-11964936D02*
X13251134Y-11974460D01*
X13251134Y-11974460D02*
X13232086Y-11983984D01*
X13232086Y-11983984D02*
X13213039Y-11983984D01*
X13213039Y-11983984D02*
X13193991Y-11974460D01*
X13193991Y-11974460D02*
X13184467Y-11964936D01*
X13184467Y-11964936D02*
X13174943Y-11945888D01*
X13174943Y-11945888D02*
X13165420Y-11907793D01*
X13165420Y-11907793D02*
X13165420Y-11860174D01*
X13165420Y-11860174D02*
X13174943Y-11822079D01*
X13174943Y-11822079D02*
X13184467Y-11803031D01*
X13184467Y-11803031D02*
X13193991Y-11793508D01*
X13193991Y-11793508D02*
X13213039Y-11783984D01*
X13365420Y-11983984D02*
X13365420Y-11850650D01*
X13365420Y-11869698D02*
X13374943Y-11860174D01*
X13374943Y-11860174D02*
X13393991Y-11850650D01*
X13393991Y-11850650D02*
X13422563Y-11850650D01*
X13422563Y-11850650D02*
X13441610Y-11860174D01*
X13441610Y-11860174D02*
X13451134Y-11879222D01*
X13451134Y-11879222D02*
X13451134Y-11983984D01*
X13451134Y-11879222D02*
X13460658Y-11860174D01*
X13460658Y-11860174D02*
X13479705Y-11850650D01*
X13479705Y-11850650D02*
X13508277Y-11850650D01*
X13508277Y-11850650D02*
X13527324Y-11860174D01*
X13527324Y-11860174D02*
X13536848Y-11879222D01*
X13536848Y-11879222D02*
X13536848Y-11983984D01*
X13632086Y-11983984D02*
X13632086Y-11850650D01*
X13632086Y-11869698D02*
X13641610Y-11860174D01*
X13641610Y-11860174D02*
X13660658Y-11850650D01*
X13660658Y-11850650D02*
X13689229Y-11850650D01*
X13689229Y-11850650D02*
X13708277Y-11860174D01*
X13708277Y-11860174D02*
X13717801Y-11879222D01*
X13717801Y-11879222D02*
X13717801Y-11983984D01*
X13717801Y-11879222D02*
X13727324Y-11860174D01*
X13727324Y-11860174D02*
X13746372Y-11850650D01*
X13746372Y-11850650D02*
X13774943Y-11850650D01*
X13774943Y-11850650D02*
X13793991Y-11860174D01*
X13793991Y-11860174D02*
X13803515Y-11879222D01*
X13803515Y-11879222D02*
X13803515Y-11983984D01*
X14193991Y-11774460D02*
X14022563Y-12031603D01*
X14451134Y-11783984D02*
X14470182Y-11783984D01*
X14470182Y-11783984D02*
X14489229Y-11793508D01*
X14489229Y-11793508D02*
X14498753Y-11803031D01*
X14498753Y-11803031D02*
X14508277Y-11822079D01*
X14508277Y-11822079D02*
X14517801Y-11860174D01*
X14517801Y-11860174D02*
X14517801Y-11907793D01*
X14517801Y-11907793D02*
X14508277Y-11945888D01*
X14508277Y-11945888D02*
X14498753Y-11964936D01*
X14498753Y-11964936D02*
X14489229Y-11974460D01*
X14489229Y-11974460D02*
X14470182Y-11983984D01*
X14470182Y-11983984D02*
X14451134Y-11983984D01*
X14451134Y-11983984D02*
X14432086Y-11974460D01*
X14432086Y-11974460D02*
X14422563Y-11964936D01*
X14422563Y-11964936D02*
X14413039Y-11945888D01*
X14413039Y-11945888D02*
X14403515Y-11907793D01*
X14403515Y-11907793D02*
X14403515Y-11860174D01*
X14403515Y-11860174D02*
X14413039Y-11822079D01*
X14413039Y-11822079D02*
X14422563Y-11803031D01*
X14422563Y-11803031D02*
X14432086Y-11793508D01*
X14432086Y-11793508D02*
X14451134Y-11783984D01*
X14603515Y-11964936D02*
X14613039Y-11974460D01*
X14613039Y-11974460D02*
X14603515Y-11983984D01*
X14603515Y-11983984D02*
X14593991Y-11974460D01*
X14593991Y-11974460D02*
X14603515Y-11964936D01*
X14603515Y-11964936D02*
X14603515Y-11983984D01*
X14736848Y-11783984D02*
X14755896Y-11783984D01*
X14755896Y-11783984D02*
X14774944Y-11793508D01*
X14774944Y-11793508D02*
X14784467Y-11803031D01*
X14784467Y-11803031D02*
X14793991Y-11822079D01*
X14793991Y-11822079D02*
X14803515Y-11860174D01*
X14803515Y-11860174D02*
X14803515Y-11907793D01*
X14803515Y-11907793D02*
X14793991Y-11945888D01*
X14793991Y-11945888D02*
X14784467Y-11964936D01*
X14784467Y-11964936D02*
X14774944Y-11974460D01*
X14774944Y-11974460D02*
X14755896Y-11983984D01*
X14755896Y-11983984D02*
X14736848Y-11983984D01*
X14736848Y-11983984D02*
X14717801Y-11974460D01*
X14717801Y-11974460D02*
X14708277Y-11964936D01*
X14708277Y-11964936D02*
X14698753Y-11945888D01*
X14698753Y-11945888D02*
X14689229Y-11907793D01*
X14689229Y-11907793D02*
X14689229Y-11860174D01*
X14689229Y-11860174D02*
X14698753Y-11822079D01*
X14698753Y-11822079D02*
X14708277Y-11803031D01*
X14708277Y-11803031D02*
X14717801Y-11793508D01*
X14717801Y-11793508D02*
X14736848Y-11783984D01*
X14917801Y-11869698D02*
X14898753Y-11860174D01*
X14898753Y-11860174D02*
X14889229Y-11850650D01*
X14889229Y-11850650D02*
X14879706Y-11831603D01*
X14879706Y-11831603D02*
X14879706Y-11822079D01*
X14879706Y-11822079D02*
X14889229Y-11803031D01*
X14889229Y-11803031D02*
X14898753Y-11793508D01*
X14898753Y-11793508D02*
X14917801Y-11783984D01*
X14917801Y-11783984D02*
X14955896Y-11783984D01*
X14955896Y-11783984D02*
X14974944Y-11793508D01*
X14974944Y-11793508D02*
X14984467Y-11803031D01*
X14984467Y-11803031D02*
X14993991Y-11822079D01*
X14993991Y-11822079D02*
X14993991Y-11831603D01*
X14993991Y-11831603D02*
X14984467Y-11850650D01*
X14984467Y-11850650D02*
X14974944Y-11860174D01*
X14974944Y-11860174D02*
X14955896Y-11869698D01*
X14955896Y-11869698D02*
X14917801Y-11869698D01*
X14917801Y-11869698D02*
X14898753Y-11879222D01*
X14898753Y-11879222D02*
X14889229Y-11888746D01*
X14889229Y-11888746D02*
X14879706Y-11907793D01*
X14879706Y-11907793D02*
X14879706Y-11945888D01*
X14879706Y-11945888D02*
X14889229Y-11964936D01*
X14889229Y-11964936D02*
X14898753Y-11974460D01*
X14898753Y-11974460D02*
X14917801Y-11983984D01*
X14917801Y-11983984D02*
X14955896Y-11983984D01*
X14955896Y-11983984D02*
X14974944Y-11974460D01*
X14974944Y-11974460D02*
X14984467Y-11964936D01*
X14984467Y-11964936D02*
X14993991Y-11945888D01*
X14993991Y-11945888D02*
X14993991Y-11907793D01*
X14993991Y-11907793D02*
X14984467Y-11888746D01*
X14984467Y-11888746D02*
X14974944Y-11879222D01*
X14974944Y-11879222D02*
X14955896Y-11869698D01*
X15165420Y-11783984D02*
X15127325Y-11783984D01*
X15127325Y-11783984D02*
X15108277Y-11793508D01*
X15108277Y-11793508D02*
X15098753Y-11803031D01*
X15098753Y-11803031D02*
X15079706Y-11831603D01*
X15079706Y-11831603D02*
X15070182Y-11869698D01*
X15070182Y-11869698D02*
X15070182Y-11945888D01*
X15070182Y-11945888D02*
X15079706Y-11964936D01*
X15079706Y-11964936D02*
X15089229Y-11974460D01*
X15089229Y-11974460D02*
X15108277Y-11983984D01*
X15108277Y-11983984D02*
X15146372Y-11983984D01*
X15146372Y-11983984D02*
X15165420Y-11974460D01*
X15165420Y-11974460D02*
X15174944Y-11964936D01*
X15174944Y-11964936D02*
X15184467Y-11945888D01*
X15184467Y-11945888D02*
X15184467Y-11898269D01*
X15184467Y-11898269D02*
X15174944Y-11879222D01*
X15174944Y-11879222D02*
X15165420Y-11869698D01*
X15165420Y-11869698D02*
X15146372Y-11860174D01*
X15146372Y-11860174D02*
X15108277Y-11860174D01*
X15108277Y-11860174D02*
X15089229Y-11869698D01*
X15089229Y-11869698D02*
X15079706Y-11879222D01*
X15079706Y-11879222D02*
X15070182Y-11898269D01*
X15355896Y-11783984D02*
X15317801Y-11783984D01*
X15317801Y-11783984D02*
X15298753Y-11793508D01*
X15298753Y-11793508D02*
X15289229Y-11803031D01*
X15289229Y-11803031D02*
X15270182Y-11831603D01*
X15270182Y-11831603D02*
X15260658Y-11869698D01*
X15260658Y-11869698D02*
X15260658Y-11945888D01*
X15260658Y-11945888D02*
X15270182Y-11964936D01*
X15270182Y-11964936D02*
X15279706Y-11974460D01*
X15279706Y-11974460D02*
X15298753Y-11983984D01*
X15298753Y-11983984D02*
X15336848Y-11983984D01*
X15336848Y-11983984D02*
X15355896Y-11974460D01*
X15355896Y-11974460D02*
X15365420Y-11964936D01*
X15365420Y-11964936D02*
X15374944Y-11945888D01*
X15374944Y-11945888D02*
X15374944Y-11898269D01*
X15374944Y-11898269D02*
X15365420Y-11879222D01*
X15365420Y-11879222D02*
X15355896Y-11869698D01*
X15355896Y-11869698D02*
X15336848Y-11860174D01*
X15336848Y-11860174D02*
X15298753Y-11860174D01*
X15298753Y-11860174D02*
X15279706Y-11869698D01*
X15279706Y-11869698D02*
X15270182Y-11879222D01*
X15270182Y-11879222D02*
X15260658Y-11898269D01*
X15451134Y-11783984D02*
X15451134Y-11822079D01*
X15527325Y-11783984D02*
X15527325Y-11822079D01*
X15822563Y-12060174D02*
X15813039Y-12050650D01*
X15813039Y-12050650D02*
X15793991Y-12022079D01*
X15793991Y-12022079D02*
X15784468Y-12003031D01*
X15784468Y-12003031D02*
X15774944Y-11974460D01*
X15774944Y-11974460D02*
X15765420Y-11926841D01*
X15765420Y-11926841D02*
X15765420Y-11888746D01*
X15765420Y-11888746D02*
X15774944Y-11841127D01*
X15774944Y-11841127D02*
X15784468Y-11812555D01*
X15784468Y-11812555D02*
X15793991Y-11793508D01*
X15793991Y-11793508D02*
X15813039Y-11764936D01*
X15813039Y-11764936D02*
X15822563Y-11755412D01*
X15984468Y-11850650D02*
X15984468Y-11983984D01*
X15936848Y-11774460D02*
X15889229Y-11917317D01*
X15889229Y-11917317D02*
X16013039Y-11917317D01*
X16241610Y-11983984D02*
X16241610Y-11783984D01*
X16327325Y-11983984D02*
X16327325Y-11879222D01*
X16327325Y-11879222D02*
X16317801Y-11860174D01*
X16317801Y-11860174D02*
X16298753Y-11850650D01*
X16298753Y-11850650D02*
X16270182Y-11850650D01*
X16270182Y-11850650D02*
X16251134Y-11860174D01*
X16251134Y-11860174D02*
X16241610Y-11869698D01*
X16451134Y-11983984D02*
X16432087Y-11974460D01*
X16432087Y-11974460D02*
X16422563Y-11964936D01*
X16422563Y-11964936D02*
X16413039Y-11945888D01*
X16413039Y-11945888D02*
X16413039Y-11888746D01*
X16413039Y-11888746D02*
X16422563Y-11869698D01*
X16422563Y-11869698D02*
X16432087Y-11860174D01*
X16432087Y-11860174D02*
X16451134Y-11850650D01*
X16451134Y-11850650D02*
X16479706Y-11850650D01*
X16479706Y-11850650D02*
X16498753Y-11860174D01*
X16498753Y-11860174D02*
X16508277Y-11869698D01*
X16508277Y-11869698D02*
X16517801Y-11888746D01*
X16517801Y-11888746D02*
X16517801Y-11945888D01*
X16517801Y-11945888D02*
X16508277Y-11964936D01*
X16508277Y-11964936D02*
X16498753Y-11974460D01*
X16498753Y-11974460D02*
X16479706Y-11983984D01*
X16479706Y-11983984D02*
X16451134Y-11983984D01*
X16632087Y-11983984D02*
X16613039Y-11974460D01*
X16613039Y-11974460D02*
X16603515Y-11955412D01*
X16603515Y-11955412D02*
X16603515Y-11783984D01*
X16784468Y-11974460D02*
X16765420Y-11983984D01*
X16765420Y-11983984D02*
X16727325Y-11983984D01*
X16727325Y-11983984D02*
X16708277Y-11974460D01*
X16708277Y-11974460D02*
X16698753Y-11955412D01*
X16698753Y-11955412D02*
X16698753Y-11879222D01*
X16698753Y-11879222D02*
X16708277Y-11860174D01*
X16708277Y-11860174D02*
X16727325Y-11850650D01*
X16727325Y-11850650D02*
X16765420Y-11850650D01*
X16765420Y-11850650D02*
X16784468Y-11860174D01*
X16784468Y-11860174D02*
X16793992Y-11879222D01*
X16793992Y-11879222D02*
X16793992Y-11898269D01*
X16793992Y-11898269D02*
X16698753Y-11917317D01*
X16870182Y-11974460D02*
X16889230Y-11983984D01*
X16889230Y-11983984D02*
X16927325Y-11983984D01*
X16927325Y-11983984D02*
X16946373Y-11974460D01*
X16946373Y-11974460D02*
X16955896Y-11955412D01*
X16955896Y-11955412D02*
X16955896Y-11945888D01*
X16955896Y-11945888D02*
X16946373Y-11926841D01*
X16946373Y-11926841D02*
X16927325Y-11917317D01*
X16927325Y-11917317D02*
X16898753Y-11917317D01*
X16898753Y-11917317D02*
X16879706Y-11907793D01*
X16879706Y-11907793D02*
X16870182Y-11888746D01*
X16870182Y-11888746D02*
X16870182Y-11879222D01*
X16870182Y-11879222D02*
X16879706Y-11860174D01*
X16879706Y-11860174D02*
X16898753Y-11850650D01*
X16898753Y-11850650D02*
X16927325Y-11850650D01*
X16927325Y-11850650D02*
X16946373Y-11860174D01*
X17022563Y-12060174D02*
X17032087Y-12050650D01*
X17032087Y-12050650D02*
X17051134Y-12022079D01*
X17051134Y-12022079D02*
X17060658Y-12003031D01*
X17060658Y-12003031D02*
X17070182Y-11974460D01*
X17070182Y-11974460D02*
X17079706Y-11926841D01*
X17079706Y-11926841D02*
X17079706Y-11888746D01*
X17079706Y-11888746D02*
X17070182Y-11841127D01*
X17070182Y-11841127D02*
X17060658Y-11812555D01*
X17060658Y-11812555D02*
X17051134Y-11793508D01*
X17051134Y-11793508D02*
X17032087Y-11764936D01*
X17032087Y-11764936D02*
X17022563Y-11755412D01*
X17384468Y-12060174D02*
X17374944Y-12050650D01*
X17374944Y-12050650D02*
X17355896Y-12022079D01*
X17355896Y-12022079D02*
X17346373Y-12003031D01*
X17346373Y-12003031D02*
X17336849Y-11974460D01*
X17336849Y-11974460D02*
X17327325Y-11926841D01*
X17327325Y-11926841D02*
X17327325Y-11888746D01*
X17327325Y-11888746D02*
X17336849Y-11841127D01*
X17336849Y-11841127D02*
X17346373Y-11812555D01*
X17346373Y-11812555D02*
X17355896Y-11793508D01*
X17355896Y-11793508D02*
X17374944Y-11764936D01*
X17374944Y-11764936D02*
X17384468Y-11755412D01*
X17460658Y-11850650D02*
X17460658Y-11983984D01*
X17460658Y-11869698D02*
X17470182Y-11860174D01*
X17470182Y-11860174D02*
X17489230Y-11850650D01*
X17489230Y-11850650D02*
X17517801Y-11850650D01*
X17517801Y-11850650D02*
X17536849Y-11860174D01*
X17536849Y-11860174D02*
X17546373Y-11879222D01*
X17546373Y-11879222D02*
X17546373Y-11983984D01*
X17670182Y-11983984D02*
X17651134Y-11974460D01*
X17651134Y-11974460D02*
X17641611Y-11964936D01*
X17641611Y-11964936D02*
X17632087Y-11945888D01*
X17632087Y-11945888D02*
X17632087Y-11888746D01*
X17632087Y-11888746D02*
X17641611Y-11869698D01*
X17641611Y-11869698D02*
X17651134Y-11860174D01*
X17651134Y-11860174D02*
X17670182Y-11850650D01*
X17670182Y-11850650D02*
X17698754Y-11850650D01*
X17698754Y-11850650D02*
X17717801Y-11860174D01*
X17717801Y-11860174D02*
X17727325Y-11869698D01*
X17727325Y-11869698D02*
X17736849Y-11888746D01*
X17736849Y-11888746D02*
X17736849Y-11945888D01*
X17736849Y-11945888D02*
X17727325Y-11964936D01*
X17727325Y-11964936D02*
X17717801Y-11974460D01*
X17717801Y-11974460D02*
X17698754Y-11983984D01*
X17698754Y-11983984D02*
X17670182Y-11983984D01*
X17793992Y-11850650D02*
X17870182Y-11850650D01*
X17822563Y-11783984D02*
X17822563Y-11955412D01*
X17822563Y-11955412D02*
X17832087Y-11974460D01*
X17832087Y-11974460D02*
X17851134Y-11983984D01*
X17851134Y-11983984D02*
X17870182Y-11983984D01*
X18089230Y-11850650D02*
X18089230Y-12050650D01*
X18089230Y-11860174D02*
X18108277Y-11850650D01*
X18108277Y-11850650D02*
X18146373Y-11850650D01*
X18146373Y-11850650D02*
X18165420Y-11860174D01*
X18165420Y-11860174D02*
X18174944Y-11869698D01*
X18174944Y-11869698D02*
X18184468Y-11888746D01*
X18184468Y-11888746D02*
X18184468Y-11945888D01*
X18184468Y-11945888D02*
X18174944Y-11964936D01*
X18174944Y-11964936D02*
X18165420Y-11974460D01*
X18165420Y-11974460D02*
X18146373Y-11983984D01*
X18146373Y-11983984D02*
X18108277Y-11983984D01*
X18108277Y-11983984D02*
X18089230Y-11974460D01*
X18298754Y-11983984D02*
X18279706Y-11974460D01*
X18279706Y-11974460D02*
X18270182Y-11955412D01*
X18270182Y-11955412D02*
X18270182Y-11783984D01*
X18460658Y-11983984D02*
X18460658Y-11879222D01*
X18460658Y-11879222D02*
X18451135Y-11860174D01*
X18451135Y-11860174D02*
X18432087Y-11850650D01*
X18432087Y-11850650D02*
X18393992Y-11850650D01*
X18393992Y-11850650D02*
X18374944Y-11860174D01*
X18460658Y-11974460D02*
X18441611Y-11983984D01*
X18441611Y-11983984D02*
X18393992Y-11983984D01*
X18393992Y-11983984D02*
X18374944Y-11974460D01*
X18374944Y-11974460D02*
X18365420Y-11955412D01*
X18365420Y-11955412D02*
X18365420Y-11936365D01*
X18365420Y-11936365D02*
X18374944Y-11917317D01*
X18374944Y-11917317D02*
X18393992Y-11907793D01*
X18393992Y-11907793D02*
X18441611Y-11907793D01*
X18441611Y-11907793D02*
X18460658Y-11898269D01*
X18527325Y-11850650D02*
X18603515Y-11850650D01*
X18555896Y-11783984D02*
X18555896Y-11955412D01*
X18555896Y-11955412D02*
X18565420Y-11974460D01*
X18565420Y-11974460D02*
X18584468Y-11983984D01*
X18584468Y-11983984D02*
X18603515Y-11983984D01*
X18746373Y-11974460D02*
X18727325Y-11983984D01*
X18727325Y-11983984D02*
X18689230Y-11983984D01*
X18689230Y-11983984D02*
X18670182Y-11974460D01*
X18670182Y-11974460D02*
X18660658Y-11955412D01*
X18660658Y-11955412D02*
X18660658Y-11879222D01*
X18660658Y-11879222D02*
X18670182Y-11860174D01*
X18670182Y-11860174D02*
X18689230Y-11850650D01*
X18689230Y-11850650D02*
X18727325Y-11850650D01*
X18727325Y-11850650D02*
X18746373Y-11860174D01*
X18746373Y-11860174D02*
X18755896Y-11879222D01*
X18755896Y-11879222D02*
X18755896Y-11898269D01*
X18755896Y-11898269D02*
X18660658Y-11917317D01*
X18927325Y-11983984D02*
X18927325Y-11783984D01*
X18927325Y-11974460D02*
X18908277Y-11983984D01*
X18908277Y-11983984D02*
X18870182Y-11983984D01*
X18870182Y-11983984D02*
X18851135Y-11974460D01*
X18851135Y-11974460D02*
X18841611Y-11964936D01*
X18841611Y-11964936D02*
X18832087Y-11945888D01*
X18832087Y-11945888D02*
X18832087Y-11888746D01*
X18832087Y-11888746D02*
X18841611Y-11869698D01*
X18841611Y-11869698D02*
X18851135Y-11860174D01*
X18851135Y-11860174D02*
X18870182Y-11850650D01*
X18870182Y-11850650D02*
X18908277Y-11850650D01*
X18908277Y-11850650D02*
X18927325Y-11860174D01*
X19003516Y-12060174D02*
X19013039Y-12050650D01*
X19013039Y-12050650D02*
X19032087Y-12022079D01*
X19032087Y-12022079D02*
X19041611Y-12003031D01*
X19041611Y-12003031D02*
X19051135Y-11974460D01*
X19051135Y-11974460D02*
X19060658Y-11926841D01*
X19060658Y-11926841D02*
X19060658Y-11888746D01*
X19060658Y-11888746D02*
X19051135Y-11841127D01*
X19051135Y-11841127D02*
X19041611Y-11812555D01*
X19041611Y-11812555D02*
X19032087Y-11793508D01*
X19032087Y-11793508D02*
X19013039Y-11764936D01*
X19013039Y-11764936D02*
X19003516Y-11755412D01*
M02*
