G04 #@! TF.GenerationSoftware,KiCad,Pcbnew,9.0.2*
G04 #@! TF.CreationDate,2025-06-20T18:51:21-07:00*
G04 #@! TF.ProjectId,slime_tracker,736c696d-655f-4747-9261-636b65722e6b,rev?*
G04 #@! TF.SameCoordinates,Original*
G04 #@! TF.FileFunction,Soldermask,Top*
G04 #@! TF.FilePolarity,Negative*
%FSLAX46Y46*%
G04 Gerber Fmt 4.6, Leading zero omitted, Abs format (unit mm)*
G04 Created by KiCad (PCBNEW 9.0.2) date 2025-06-20 18:51:21*
%MOMM*%
%LPD*%
G01*
G04 APERTURE LIST*
G04 Aperture macros list*
%AMRoundRect*
0 Rectangle with rounded corners*
0 $1 Rounding radius*
0 $2 $3 $4 $5 $6 $7 $8 $9 X,Y pos of 4 corners*
0 Add a 4 corners polygon primitive as box body*
4,1,4,$2,$3,$4,$5,$6,$7,$8,$9,$2,$3,0*
0 Add four circle primitives for the rounded corners*
1,1,$1+$1,$2,$3*
1,1,$1+$1,$4,$5*
1,1,$1+$1,$6,$7*
1,1,$1+$1,$8,$9*
0 Add four rect primitives between the rounded corners*
20,1,$1+$1,$2,$3,$4,$5,0*
20,1,$1+$1,$4,$5,$6,$7,0*
20,1,$1+$1,$6,$7,$8,$9,0*
20,1,$1+$1,$8,$9,$2,$3,0*%
G04 Aperture macros list end*
%ADD10C,0.010000*%
%ADD11RoundRect,0.250000X0.450000X0.350000X-0.450000X0.350000X-0.450000X-0.350000X0.450000X-0.350000X0*%
%ADD12RoundRect,0.190500X-1.079500X-0.444500X1.079500X-0.444500X1.079500X0.444500X-1.079500X0.444500X0*%
%ADD13C,1.700000*%
%ADD14R,2.000000X2.000000*%
%ADD15RoundRect,0.237500X0.250000X0.237500X-0.250000X0.237500X-0.250000X-0.237500X0.250000X-0.237500X0*%
%ADD16RoundRect,0.237500X-0.250000X-0.237500X0.250000X-0.237500X0.250000X0.237500X-0.250000X0.237500X0*%
%ADD17R,1.100000X0.930000*%
%ADD18R,0.900000X2.000000*%
%ADD19C,0.850000*%
%ADD20RoundRect,0.225000X0.225000X0.250000X-0.225000X0.250000X-0.225000X-0.250000X0.225000X-0.250000X0*%
%ADD21RoundRect,0.225000X-0.250000X0.225000X-0.250000X-0.225000X0.250000X-0.225000X0.250000X0.225000X0*%
%ADD22C,0.250000*%
%ADD23R,1.500000X1.000000*%
%ADD24R,0.600000X0.400000*%
%ADD25C,2.200000*%
%ADD26R,0.600000X1.550000*%
%ADD27R,1.200000X1.800000*%
G04 APERTURE END LIST*
D10*
X141450000Y-100425000D02*
X140875000Y-100425000D01*
X140875000Y-100075000D01*
X141450000Y-100075000D01*
X141450000Y-100425000D01*
G36*
X141450000Y-100425000D02*
G01*
X140875000Y-100425000D01*
X140875000Y-100075000D01*
X141450000Y-100075000D01*
X141450000Y-100425000D01*
G37*
X141450000Y-99925000D02*
X140875000Y-99925000D01*
X140875000Y-99575000D01*
X141450000Y-99575000D01*
X141450000Y-99925000D01*
G36*
X141450000Y-99925000D02*
G01*
X140875000Y-99925000D01*
X140875000Y-99575000D01*
X141450000Y-99575000D01*
X141450000Y-99925000D01*
G37*
X141450000Y-99425000D02*
X140875000Y-99425000D01*
X140875000Y-99075000D01*
X141450000Y-99075000D01*
X141450000Y-99425000D01*
G36*
X141450000Y-99425000D02*
G01*
X140875000Y-99425000D01*
X140875000Y-99075000D01*
X141450000Y-99075000D01*
X141450000Y-99425000D01*
G37*
X141450000Y-98925000D02*
X140875000Y-98925000D01*
X140875000Y-98575000D01*
X141450000Y-98575000D01*
X141450000Y-98925000D01*
G36*
X141450000Y-98925000D02*
G01*
X140875000Y-98925000D01*
X140875000Y-98575000D01*
X141450000Y-98575000D01*
X141450000Y-98925000D01*
G37*
X140675000Y-100700000D02*
X140325000Y-100700000D01*
X140325000Y-100125000D01*
X140675000Y-100125000D01*
X140675000Y-100700000D01*
G36*
X140675000Y-100700000D02*
G01*
X140325000Y-100700000D01*
X140325000Y-100125000D01*
X140675000Y-100125000D01*
X140675000Y-100700000D01*
G37*
X140675000Y-98875000D02*
X140325000Y-98875000D01*
X140325000Y-98300000D01*
X140675000Y-98300000D01*
X140675000Y-98875000D01*
G36*
X140675000Y-98875000D02*
G01*
X140325000Y-98875000D01*
X140325000Y-98300000D01*
X140675000Y-98300000D01*
X140675000Y-98875000D01*
G37*
X140175000Y-100700000D02*
X139825000Y-100700000D01*
X139825000Y-100125000D01*
X140175000Y-100125000D01*
X140175000Y-100700000D01*
G36*
X140175000Y-100700000D02*
G01*
X139825000Y-100700000D01*
X139825000Y-100125000D01*
X140175000Y-100125000D01*
X140175000Y-100700000D01*
G37*
X140175000Y-98875000D02*
X139825000Y-98875000D01*
X139825000Y-98300000D01*
X140175000Y-98300000D01*
X140175000Y-98875000D01*
G36*
X140175000Y-98875000D02*
G01*
X139825000Y-98875000D01*
X139825000Y-98300000D01*
X140175000Y-98300000D01*
X140175000Y-98875000D01*
G37*
X139675000Y-100700000D02*
X139325000Y-100700000D01*
X139325000Y-100125000D01*
X139675000Y-100125000D01*
X139675000Y-100700000D01*
G36*
X139675000Y-100700000D02*
G01*
X139325000Y-100700000D01*
X139325000Y-100125000D01*
X139675000Y-100125000D01*
X139675000Y-100700000D01*
G37*
X139675000Y-98875000D02*
X139325000Y-98875000D01*
X139325000Y-98300000D01*
X139675000Y-98300000D01*
X139675000Y-98875000D01*
G36*
X139675000Y-98875000D02*
G01*
X139325000Y-98875000D01*
X139325000Y-98300000D01*
X139675000Y-98300000D01*
X139675000Y-98875000D01*
G37*
X139125000Y-100425000D02*
X138550000Y-100425000D01*
X138550000Y-100075000D01*
X139125000Y-100075000D01*
X139125000Y-100425000D01*
G36*
X139125000Y-100425000D02*
G01*
X138550000Y-100425000D01*
X138550000Y-100075000D01*
X139125000Y-100075000D01*
X139125000Y-100425000D01*
G37*
X139125000Y-99925000D02*
X138550000Y-99925000D01*
X138550000Y-99575000D01*
X139125000Y-99575000D01*
X139125000Y-99925000D01*
G36*
X139125000Y-99925000D02*
G01*
X138550000Y-99925000D01*
X138550000Y-99575000D01*
X139125000Y-99575000D01*
X139125000Y-99925000D01*
G37*
X139125000Y-99425000D02*
X138550000Y-99425000D01*
X138550000Y-99075000D01*
X139125000Y-99075000D01*
X139125000Y-99425000D01*
G36*
X139125000Y-99425000D02*
G01*
X138550000Y-99425000D01*
X138550000Y-99075000D01*
X139125000Y-99075000D01*
X139125000Y-99425000D01*
G37*
X139125000Y-98925000D02*
X138550000Y-98925000D01*
X138550000Y-98575000D01*
X139125000Y-98575000D01*
X139125000Y-98925000D01*
G36*
X139125000Y-98925000D02*
G01*
X138550000Y-98925000D01*
X138550000Y-98575000D01*
X139125000Y-98575000D01*
X139125000Y-98925000D01*
G37*
G36*
X129250000Y-74400000D02*
G01*
X127750000Y-74400000D01*
X127750000Y-74700000D01*
X129250000Y-74700000D01*
X129250000Y-74400000D01*
G37*
D11*
X141800000Y-92450000D03*
X139600000Y-92450000D03*
X139600000Y-94150000D03*
X141800000Y-94150000D03*
D12*
X151470000Y-102220000D03*
X151470000Y-99680000D03*
X151470000Y-97140000D03*
X151470000Y-94600000D03*
X151470000Y-92060000D03*
X151470000Y-89520000D03*
X151470000Y-86980000D03*
X151470000Y-84440000D03*
X128610000Y-102220000D03*
X128610000Y-99680000D03*
X128610000Y-97140000D03*
X128610000Y-94600000D03*
X128610000Y-92060000D03*
X128610000Y-89520000D03*
X128610000Y-86980000D03*
X128610000Y-84440000D03*
D13*
X146350000Y-73840000D03*
X133650000Y-73840000D03*
X146350000Y-95110000D03*
X143810000Y-95110000D03*
X136190000Y-95110000D03*
X133650000Y-95110000D03*
D14*
X134000000Y-109500000D03*
D15*
X125787500Y-105900000D03*
X127612500Y-105900000D03*
D16*
X146500000Y-91750000D03*
X144675000Y-91750000D03*
X146500000Y-89000000D03*
X144675000Y-89000000D03*
D15*
X142287500Y-97200000D03*
X144112500Y-97200000D03*
D16*
X135725000Y-97300000D03*
X133900000Y-97300000D03*
D17*
X143800000Y-73140000D03*
X143800000Y-70870000D03*
X136200000Y-70870000D03*
X136200000Y-73140000D03*
D18*
X137750000Y-73850000D03*
X139250000Y-73850000D03*
X142250000Y-73850000D03*
D19*
X138500000Y-72000000D03*
X141500000Y-72000000D03*
D20*
X135000000Y-101800000D03*
X136550000Y-101800000D03*
X139225000Y-102600000D03*
X140775000Y-102600000D03*
D21*
X132100000Y-101650000D03*
X132100000Y-100100000D03*
D22*
X134900000Y-99500000D03*
X134500000Y-99500000D03*
X134900000Y-99100000D03*
X134500000Y-99100000D03*
D23*
X128500000Y-73900000D03*
X128500000Y-75200000D03*
D24*
X147000000Y-97820000D03*
X147000000Y-97180000D03*
X145500000Y-76120000D03*
X145500000Y-75480000D03*
D25*
X125500000Y-80500000D03*
D26*
X153500000Y-74940000D03*
X152500000Y-74940000D03*
X151500000Y-74940000D03*
X150500000Y-74940000D03*
X149500000Y-74940000D03*
D27*
X154800000Y-71060000D03*
X148200000Y-71060000D03*
D14*
X128500000Y-109500000D03*
D25*
X151500000Y-80500000D03*
X154500000Y-109500000D03*
X140500000Y-109500000D03*
M02*
