G04 #@! TF.GenerationSoftware,KiCad,Pcbnew,9.0.2*
G04 #@! TF.CreationDate,2025-06-28T15:28:43-07:00*
G04 #@! TF.ProjectId,bert_slime_tracker,62657274-5f73-46c6-996d-655f74726163,rev?*
G04 #@! TF.SameCoordinates,Original*
G04 #@! TF.FileFunction,Copper,L2,Bot*
G04 #@! TF.FilePolarity,Positive*
%FSLAX46Y46*%
G04 Gerber Fmt 4.6, Leading zero omitted, Abs format (unit mm)*
G04 Created by KiCad (PCBNEW 9.0.2) date 2025-06-28 15:28:43*
%MOMM*%
%LPD*%
G01*
G04 APERTURE LIST*
G04 Aperture macros list*
%AMRoundRect*
0 Rectangle with rounded corners*
0 $1 Rounding radius*
0 $2 $3 $4 $5 $6 $7 $8 $9 X,Y pos of 4 corners*
0 Add a 4 corners polygon primitive as box body*
4,1,4,$2,$3,$4,$5,$6,$7,$8,$9,$2,$3,0*
0 Add four circle primitives for the rounded corners*
1,1,$1+$1,$2,$3*
1,1,$1+$1,$4,$5*
1,1,$1+$1,$6,$7*
1,1,$1+$1,$8,$9*
0 Add four rect primitives between the rounded corners*
20,1,$1+$1,$2,$3,$4,$5,0*
20,1,$1+$1,$4,$5,$6,$7,0*
20,1,$1+$1,$6,$7,$8,$9,0*
20,1,$1+$1,$8,$9,$2,$3,0*%
G04 Aperture macros list end*
G04 #@! TA.AperFunction,ComponentPad*
%ADD10RoundRect,0.190500X-1.079500X-0.444500X1.079500X-0.444500X1.079500X0.444500X-1.079500X0.444500X0*%
G04 #@! TD*
G04 #@! TA.AperFunction,ComponentPad*
%ADD11C,1.700000*%
G04 #@! TD*
G04 #@! TA.AperFunction,ComponentPad*
%ADD12C,0.850000*%
G04 #@! TD*
G04 #@! TA.AperFunction,ViaPad*
%ADD13C,0.600000*%
G04 #@! TD*
G04 #@! TA.AperFunction,Conductor*
%ADD14C,0.200000*%
G04 #@! TD*
G04 #@! TA.AperFunction,Conductor*
%ADD15C,0.400000*%
G04 #@! TD*
G04 #@! TA.AperFunction,Conductor*
%ADD16C,0.500000*%
G04 #@! TD*
G04 APERTURE END LIST*
D10*
X128610000Y-84440000D03*
X128610000Y-86980000D03*
X128610000Y-89520000D03*
X128610000Y-92060000D03*
X128610000Y-94600000D03*
X128610000Y-97140000D03*
X128610000Y-99680000D03*
X128610000Y-102220000D03*
X151470000Y-84440000D03*
X151470000Y-86980000D03*
X151470000Y-89520000D03*
X151470000Y-92060000D03*
X151470000Y-94600000D03*
X151470000Y-97140000D03*
X151470000Y-99680000D03*
X151470000Y-102220000D03*
D11*
X146350000Y-73840000D03*
X133650000Y-73840000D03*
X146350000Y-95110000D03*
X143810000Y-95110000D03*
X136190000Y-95110000D03*
X133650000Y-95110000D03*
D12*
X141500000Y-72000000D03*
X138500000Y-72000000D03*
D13*
X136000000Y-98750000D03*
X143000000Y-89000000D03*
X152000000Y-77500000D03*
X137900000Y-101500000D03*
X135600000Y-88300000D03*
X128600000Y-77800000D03*
X134900000Y-103200000D03*
X136000000Y-99600000D03*
X131600000Y-108900000D03*
X130800000Y-101900000D03*
X133100000Y-103900000D03*
X131000000Y-96100000D03*
X140000000Y-88000000D03*
X142500000Y-82100000D03*
X137000000Y-83000000D03*
X141000000Y-84000000D03*
X142000000Y-91000000D03*
X148200000Y-88300000D03*
X124800000Y-107600000D03*
X134700000Y-106600000D03*
X134900000Y-104000000D03*
X139100000Y-80800000D03*
X137800000Y-103100000D03*
X129900000Y-105700000D03*
X132200000Y-107700000D03*
D14*
X143000000Y-84250000D02*
X143000000Y-89000000D01*
X137900000Y-101500000D02*
X137900000Y-100650000D01*
X151500000Y-78000000D02*
X149250000Y-78000000D01*
X137900000Y-100650000D02*
X136000000Y-98750000D01*
X149250000Y-78000000D02*
X143000000Y-84250000D01*
X152000000Y-77500000D02*
X151500000Y-78000000D01*
X135600000Y-84800000D02*
X128600000Y-77800000D01*
X135600000Y-88300000D02*
X135600000Y-84800000D01*
X136900000Y-103100000D02*
X136000000Y-104000000D01*
X134900000Y-103200000D02*
X136000000Y-102100000D01*
D15*
X140000000Y-89000000D02*
X140000000Y-88000000D01*
D16*
X138000000Y-84000000D02*
X137000000Y-83000000D01*
D14*
X131000000Y-101700000D02*
X131000000Y-96100000D01*
X131600000Y-108900000D02*
X126100000Y-108900000D01*
X130800000Y-101900000D02*
X131000000Y-101700000D01*
D15*
X142000000Y-91000000D02*
X140000000Y-89000000D01*
D14*
X126100000Y-108900000D02*
X124800000Y-107600000D01*
X133100000Y-103900000D02*
X134700000Y-105500000D01*
X137800000Y-103100000D02*
X136900000Y-103100000D01*
X136000000Y-104000000D02*
X134900000Y-104000000D01*
X129900000Y-105700000D02*
X131900000Y-107700000D01*
D15*
X148200000Y-96410000D02*
X148200000Y-88300000D01*
D14*
X134700000Y-105500000D02*
X134700000Y-106600000D01*
D15*
X142500000Y-82100000D02*
X141200000Y-80800000D01*
D16*
X141000000Y-84000000D02*
X138000000Y-84000000D01*
D14*
X131900000Y-107700000D02*
X132200000Y-107700000D01*
X136000000Y-102100000D02*
X136000000Y-99600000D01*
D15*
X141200000Y-80800000D02*
X139100000Y-80800000D01*
X151470000Y-99680000D02*
X148200000Y-96410000D01*
M02*
