M48
; DRILL file {KiCad 9.0.2} date 2025-06-28T15:28:46-0700
; FORMAT={-:-/ absolute / metric / decimal}
; #@! TF.CreationDate,2025-06-28T15:28:46-07:00
; #@! TF.GenerationSoftware,Kicad,Pcbnew,9.0.2
; #@! TF.FileFunction,Plated,1,2,PTH
FMAT,2
METRIC
; #@! TA.AperFunction,Plated,PTH,ViaDrill
T1C0.300
; #@! TA.AperFunction,Plated,PTH,ComponentDrill
T2C0.800
; #@! TA.AperFunction,Plated,PTH,ComponentDrill
T3C0.850
; #@! TA.AperFunction,Plated,PTH,ComponentDrill
T4C0.900
%
G90
G05
T1
X124.8Y-107.6
X128.6Y-77.8
X129.9Y-105.7
X130.8Y-101.9
X131.0Y-96.1
X131.6Y-108.9
X132.2Y-107.7
X133.1Y-103.9
X134.7Y-106.6
X134.9Y-103.2
X134.9Y-104.0
X135.6Y-88.3
X136.0Y-98.75
X136.0Y-99.6
X137.0Y-83.0
X137.8Y-103.1
X137.9Y-101.5
X139.1Y-80.8
X140.0Y-88.0
X141.0Y-84.0
X142.0Y-91.0
X142.5Y-82.1
X143.0Y-89.0
X148.2Y-88.3
X152.0Y-77.5
T2
X128.61Y-84.44
X128.61Y-86.98
X128.61Y-89.52
X128.61Y-92.06
X128.61Y-94.6
X128.61Y-97.14
X128.61Y-99.68
X128.61Y-102.22
X151.47Y-84.44
X151.47Y-86.98
X151.47Y-89.52
X151.47Y-92.06
X151.47Y-94.6
X151.47Y-97.14
X151.47Y-99.68
X151.47Y-102.22
T3
X138.5Y-72.0
X141.5Y-72.0
T4
X133.65Y-73.84
X133.65Y-95.11
X136.19Y-95.11
X143.81Y-95.11
X146.35Y-73.84
X146.35Y-95.11
M30
