G04 #@! TF.GenerationSoftware,KiCad,Pcbnew,9.0.2*
G04 #@! TF.CreationDate,2025-06-28T15:28:43-07:00*
G04 #@! TF.ProjectId,bert_slime_tracker,62657274-5f73-46c6-996d-655f74726163,rev?*
G04 #@! TF.SameCoordinates,Original*
G04 #@! TF.FileFunction,Paste,Top*
G04 #@! TF.FilePolarity,Positive*
%FSLAX46Y46*%
G04 Gerber Fmt 4.6, Leading zero omitted, Abs format (unit mm)*
G04 Created by KiCad (PCBNEW 9.0.2) date 2025-06-28 15:28:43*
%MOMM*%
%LPD*%
G01*
G04 APERTURE LIST*
G04 Aperture macros list*
%AMRoundRect*
0 Rectangle with rounded corners*
0 $1 Rounding radius*
0 $2 $3 $4 $5 $6 $7 $8 $9 X,Y pos of 4 corners*
0 Add a 4 corners polygon primitive as box body*
4,1,4,$2,$3,$4,$5,$6,$7,$8,$9,$2,$3,0*
0 Add four circle primitives for the rounded corners*
1,1,$1+$1,$2,$3*
1,1,$1+$1,$4,$5*
1,1,$1+$1,$6,$7*
1,1,$1+$1,$8,$9*
0 Add four rect primitives between the rounded corners*
20,1,$1+$1,$2,$3,$4,$5,0*
20,1,$1+$1,$4,$5,$6,$7,0*
20,1,$1+$1,$6,$7,$8,$9,0*
20,1,$1+$1,$8,$9,$2,$3,0*%
G04 Aperture macros list end*
%ADD10R,0.600000X0.400000*%
%ADD11C,0.250000*%
%ADD12RoundRect,0.237500X0.250000X0.237500X-0.250000X0.237500X-0.250000X-0.237500X0.250000X-0.237500X0*%
%ADD13RoundRect,0.225000X0.225000X0.250000X-0.225000X0.250000X-0.225000X-0.250000X0.225000X-0.250000X0*%
%ADD14RoundRect,0.237500X-0.250000X-0.237500X0.250000X-0.237500X0.250000X0.237500X-0.250000X0.237500X0*%
%ADD15R,0.600000X1.550000*%
%ADD16R,1.200000X1.800000*%
%ADD17R,0.475000X0.250000*%
%ADD18R,0.250000X0.475000*%
%ADD19RoundRect,0.225000X-0.250000X0.225000X-0.250000X-0.225000X0.250000X-0.225000X0.250000X0.225000X0*%
%ADD20R,0.900000X2.000000*%
%ADD21R,1.100000X0.930000*%
%ADD22RoundRect,0.250000X0.450000X0.350000X-0.450000X0.350000X-0.450000X-0.350000X0.450000X-0.350000X0*%
G04 APERTURE END LIST*
D10*
X147000000Y-97820000D03*
X147000000Y-97180000D03*
D11*
X134900000Y-99500000D03*
X134500000Y-99500000D03*
X134900000Y-99100000D03*
X134500000Y-99100000D03*
D10*
X145500000Y-76120000D03*
X145500000Y-75480000D03*
D12*
X144112500Y-97200000D03*
X142287500Y-97200000D03*
D13*
X141200000Y-102000000D03*
X139650000Y-102000000D03*
D14*
X144675000Y-89000000D03*
X146500000Y-89000000D03*
D15*
X153500000Y-74940000D03*
X152500000Y-74940000D03*
X151500000Y-74940000D03*
X150500000Y-74940000D03*
X149500000Y-74940000D03*
D16*
X154800000Y-71060000D03*
X148200000Y-71060000D03*
D17*
X138837500Y-98750000D03*
X138837500Y-99250000D03*
X138837500Y-99750000D03*
X138837500Y-100250000D03*
D18*
X139500000Y-100412500D03*
X140000000Y-100412500D03*
X140500000Y-100412500D03*
D17*
X141162500Y-100250000D03*
X141162500Y-99750000D03*
X141162500Y-99250000D03*
X141162500Y-98750000D03*
D18*
X140500000Y-98587500D03*
X140000000Y-98587500D03*
X139500000Y-98587500D03*
D19*
X132100000Y-100100000D03*
X132100000Y-101650000D03*
D14*
X144675000Y-91750000D03*
X146500000Y-91750000D03*
D20*
X142250000Y-73850000D03*
X139250000Y-73850000D03*
X137750000Y-73850000D03*
D21*
X136200000Y-73140000D03*
X136200000Y-70870000D03*
X143800000Y-70870000D03*
X143800000Y-73140000D03*
D14*
X133900000Y-97300000D03*
X135725000Y-97300000D03*
D13*
X136550000Y-101800000D03*
X135000000Y-101800000D03*
D22*
X141800000Y-92450000D03*
X139600000Y-92450000D03*
X139600000Y-94150000D03*
X141800000Y-94150000D03*
D12*
X127612500Y-105900000D03*
X125787500Y-105900000D03*
M02*
